<mxfile host="app.diagrams.net" modified="2024-07-15T07:52:38.082Z" agent="Mozilla/5.0 (Macintosh; Intel Mac OS X 10_15_7) AppleWebKit/537.36 (KHTML, like Gecko) Chrome/126.0.0.0 Safari/537.36" etag="9NHxzyGqXpUJIC3vK3uC" version="24.6.5" type="github">
  <diagram name="Page-1" id="fy4HSOcvszyvwMAzG2S-">
    <mxGraphModel dx="1841" dy="1026" grid="1" gridSize="10" guides="1" tooltips="1" connect="1" arrows="1" fold="1" page="1" pageScale="1" pageWidth="850" pageHeight="1100" math="0" shadow="0">
      <root>
        <mxCell id="0" />
        <mxCell id="1" parent="0" />
        <mxCell id="TFTGvFnlYTFG94R_TVuh-1" value="&lt;font style=&quot;font-size: 14px;&quot;&gt;Test&lt;/font&gt;" style="text;html=1;align=center;verticalAlign=middle;whiteSpace=wrap;rounded=0;" vertex="1" parent="1">
          <mxGeometry x="260" y="300" width="320" height="130" as="geometry" />
        </mxCell>
      </root>
    </mxGraphModel>
  </diagram>
</mxfile>
